#N canvas 479 25 1069 810 10;
#X obj -396 742 sendOSC;
#X floatatom -396 769 5 0 0 0 - - -;
#X msg -387 655 disconnect;
#X floatatom -342 771 5 0 0 0 - - -;
#X text -293 774 bundleDepth;
#X obj -334 702 OSC;
#X msg -455 617 connect localhost 9090;
#X obj -575 126 i;
#X obj -549 126 + 1;
#X floatatom -602 228 5 0 0 0 - - -;
#X obj -575 105 bng 15 250 50 0 empty empty empty 17 7 0 10 -262144
-1 -1;
#X obj -575 79 metro 1000;
#X obj -575 57 tgl 15 0 empty empty empty 17 7 0 10 -262144 -1 -1 1
1;
#X floatatom -518 51 5 0 0 0 - - -;
#X obj -519 213 hradio 30 1 0 8 empty empty empty 0 -8 0 10 -262144
-1 -1 3;
#X msg -257 595 send /seq \$1 \$2;
#X obj -486 545 pack f f;
#X obj -677 364 t b b;
#X obj -645 458 i;
#X floatatom -630 431 5 0 0 0 - - -;
#X obj -600 459 i;
#X floatatom -585 432 5 0 0 0 - - -;
#X obj -148 128 select 0 1 2 3 4 5 6 7;
#X obj -567 368 t b b;
#X obj -535 462 i;
#X floatatom -520 435 5 0 0 0 - - -;
#X obj -490 463 i;
#X floatatom -475 436 5 0 0 0 - - -;
#X obj -451 367 t b b;
#X obj -419 461 i;
#X floatatom -404 434 5 0 0 0 - - -;
#X obj -374 462 i;
#X floatatom -359 435 5 0 0 0 - - -;
#X obj -338 368 t b b;
#X obj -306 462 i;
#X floatatom -291 435 5 0 0 0 - - -;
#X obj -261 463 i;
#X floatatom -246 436 5 0 0 0 - - -;
#X obj -228 650 spigot;
#X obj -519 243 tgl 30 0 empty empty empty 17 7 0 10 -262144 -1 -1
1 1;
#X obj -677 335 spigot;
#X obj -489 243 tgl 30 0 empty empty empty 17 7 0 10 -262144 -1 -1
0 1;
#X obj -566 338 spigot;
#X obj -459 243 tgl 30 0 empty empty empty 17 7 0 10 -262144 -1 -1
1 1;
#X obj -449 337 spigot;
#X obj -429 243 tgl 30 0 empty empty empty 17 7 0 10 -262144 -1 -1
0 1;
#X obj -337 339 spigot;
#X obj -24 541 pack f f;
#X obj -215 360 t b b;
#X obj -183 454 i;
#X floatatom -168 427 5 0 0 0 - - -;
#X obj -138 455 i;
#X floatatom -123 428 5 0 0 0 - - -;
#X obj -105 364 t b b;
#X obj -73 458 i;
#X floatatom -58 431 5 0 0 0 - - -;
#X obj -28 459 i;
#X floatatom -13 432 5 0 0 0 - - -;
#X obj 11 363 t b b;
#X obj 43 457 i;
#X floatatom 58 430 5 0 0 0 - - -;
#X obj 88 458 i;
#X floatatom 103 431 5 0 0 0 - - -;
#X obj 124 364 t b b;
#X obj 156 458 i;
#X floatatom 171 431 5 0 0 0 - - -;
#X obj 201 459 i;
#X floatatom 216 432 5 0 0 0 - - -;
#X obj -399 243 tgl 30 0 empty empty empty 17 7 0 10 -262144 -1 -1
1 1;
#X obj -215 331 spigot;
#X obj -369 243 tgl 30 0 empty empty empty 17 7 0 10 -262144 -1 -1
0 1;
#X obj -104 334 spigot;
#X obj -339 243 tgl 30 0 empty empty empty 17 7 0 10 -262144 -1 -1
0 1;
#X obj 13 333 spigot;
#X obj -309 243 tgl 30 0 empty empty empty 17 7 0 10 -262144 -1 -1
1 1;
#X obj 125 335 spigot;
#X obj -602 206 % 8;
#X msg -508 172 4;
#X msg -447 172 8;
#X connect 0 0 1 0;
#X connect 0 1 3 0;
#X connect 2 0 0 0;
#X connect 6 0 0 0;
#X connect 7 0 8 0;
#X connect 7 0 76 0;
#X connect 8 0 7 1;
#X connect 9 0 14 0;
#X connect 10 0 7 0;
#X connect 11 0 10 0;
#X connect 12 0 11 0;
#X connect 13 0 11 1;
#X connect 14 0 22 0;
#X connect 15 0 0 0;
#X connect 16 0 15 0;
#X connect 17 0 18 0;
#X connect 17 1 20 0;
#X connect 18 0 16 0;
#X connect 19 0 18 1;
#X connect 20 0 16 1;
#X connect 21 0 20 1;
#X connect 22 0 40 0;
#X connect 22 1 42 0;
#X connect 22 2 44 0;
#X connect 22 3 46 0;
#X connect 22 4 69 0;
#X connect 22 5 71 0;
#X connect 22 6 73 0;
#X connect 22 7 75 0;
#X connect 23 0 24 0;
#X connect 23 1 26 0;
#X connect 24 0 16 0;
#X connect 25 0 24 1;
#X connect 26 0 16 1;
#X connect 27 0 26 1;
#X connect 28 0 29 0;
#X connect 28 1 31 0;
#X connect 29 0 16 0;
#X connect 30 0 29 1;
#X connect 31 0 16 1;
#X connect 32 0 31 1;
#X connect 33 0 34 0;
#X connect 33 1 36 0;
#X connect 34 0 16 0;
#X connect 35 0 34 1;
#X connect 36 0 16 1;
#X connect 37 0 36 1;
#X connect 39 0 40 1;
#X connect 40 0 17 0;
#X connect 41 0 42 1;
#X connect 42 0 23 0;
#X connect 43 0 44 1;
#X connect 44 0 28 0;
#X connect 45 0 46 1;
#X connect 46 0 33 0;
#X connect 47 0 15 0;
#X connect 48 0 49 0;
#X connect 48 1 51 0;
#X connect 49 0 47 0;
#X connect 50 0 49 1;
#X connect 51 0 47 1;
#X connect 52 0 51 1;
#X connect 53 0 54 0;
#X connect 53 1 56 0;
#X connect 54 0 47 0;
#X connect 55 0 54 1;
#X connect 56 0 47 1;
#X connect 57 0 56 1;
#X connect 58 0 59 0;
#X connect 58 1 61 0;
#X connect 59 0 47 0;
#X connect 60 0 59 1;
#X connect 61 0 47 1;
#X connect 62 0 61 1;
#X connect 63 0 64 0;
#X connect 63 1 66 0;
#X connect 64 0 47 0;
#X connect 65 0 64 1;
#X connect 66 0 47 1;
#X connect 67 0 66 1;
#X connect 68 0 69 1;
#X connect 69 0 48 0;
#X connect 70 0 71 1;
#X connect 71 0 53 0;
#X connect 72 0 73 1;
#X connect 73 0 58 0;
#X connect 74 0 75 1;
#X connect 75 0 63 0;
#X connect 76 0 9 0;
#X connect 77 0 76 1;
#X connect 78 0 76 1;
